{"title":"There Was A Father - 1942 - Chichi Ariki - Yasujiro Ozu - DVDRip","uid":7276353,"size":403310304,"categoryP":"video","categoryS":"movies","magnet":"?xt=urn:btih:8daba0e8d03761adcc464ff5b12c8c24d05a4902&amp;dn=There+Was+A+Father+-+1942+-+Chichi+Ariki+-+Yasujiro+Ozu+-+DVDRip&amp;tr=udp%3A%2F%2Ftracker.openbittorrent.com%3A80&amp;tr=udp%3A%2F%2Fopen.demonii.com%3A1337&amp;tr=udp%3A%2F%2Ftracker.coppersurfer.tk%3A6969&amp;tr=udp%3A%2F%2Fexodus.desync.com%3A6969","seeders":3,"leechers":0,"uploader":"Sp4ce","files":3,"time":1337295145,"description":"Quality is exactly the same as the DVD. (Why is the filesize so small? Ask the ffmpeg developers). \n\nInput #0, matroska,webm, from 'There Was A Father.mkv':\n  Metadata:\n    ENCODER         : Lavf53.30.100\n  Duration: 01:26:57.44, start: 0.000000, bitrate: 618 k\nb/s\n    Stream #0:0: Video: h264 (High), yuv420p, 720x480 [S\nAR 8:9 DAR 4:3], 29.97 fps, 29.97 tbr, 1k tbn, 59.94 tbc\n (default)\n    Stream #0:1: Audio: vorbis, 48000 Hz, mono, s16 (def\nault)\n","torrent":{"xt":"urn:btih:8daba0e8d03761adcc464ff5b12c8c24d05a4902","amp;dn":"There+Was+A+Father+-+1942+-+Chichi+Ariki+-+Yasujiro+Ozu+-+DVDRip","amp;tr":["udp%3A%2F%2Ftracker.openbittorrent.com%3A80","udp%3A%2F%2Fopen.demonii.com%3A1337","udp%3A%2F%2Ftracker.coppersurfer.tk%3A6969","udp%3A%2F%2Fexodus.desync.com%3A6969"],"infoHash":"8daba0e8d03761adcc464ff5b12c8c24d05a4902","infoHashBuffer":{"type":"Buffer","data":[141,171,160,232,208,55,97,173,204,70,79,245,177,44,140,36,208,90,73,2]},"announce":[],"urlList":[]}}